<svg width="800" height="600" xmlns="http://www.w3.org/2000/svg">
 <!-- Created with Method Draw - http://github.com/duopixel/Method-Draw/ -->

 <g>
  <title>background</title>
  <rect fill="#fff" id="canvas_background" height="602" width="802" y="-1" x="-1"/>
 </g>
 <g>
  <title>Layer 1</title>
  <path transform="rotate(-8.662080764770508 400.0000000000008,291.52664184570307) " d="m519.47282,90.6375c-9,-8 -18,-9 -36,-9c-23,0 -52.09406,9.13188 -89,32c-56.82584,35.21112 -93.30469,57.73593 -121,90c-25.47726,29.68013 -39.83057,64.76384 -29,96.00002c14.35835,41.41061 68.95197,80.35312 129,111c57.55887,29.37646 114.67163,51.15356 178.99997,32c23.18103,-6.9021 62.10895,-58.78217 74,-97c13.73706,-44.15082 17.89777,-91.44986 14,-107c-9.35681,-37.32895 -39.21765,-71.71939 -76,-88.00002c-65.66086,-29.06284 -132.51736,-22.91454 -162.99997,-16c-78.02408,17.69862 -118.56259,30.53558 -132,56c-3.84851,7.29308 26.50696,27.94576 82,42.00002c43.18973,10.93832 62.29807,6.39835 54,1c-62.88971,-40.91315 -135.0827,-47.11479 -183,-43.00002c-21.50787,1.84694 -21.60173,20.48378 16,47.00002c57.3988,40.47687 140.2724,77.56335 235,82c59.6171,2.79221 102.36276,-46.02081 75.99997,-118.00002c-22.89551,-62.51236 -79.10797,-106.54463 -123.99997,-135c-35.93347,-22.77689 -73.23334,-28.24105 -105,-18c-43.84314,14.13432 -96.94022,58.88039 -135,111c-32.56932,44.60089 -53.20516,108.56584 -17,147.00002c83.12914,88.24707 197.78189,87.69208 273,59c62.99646,-24.03012 91.04416,-88.12354 70,-132c-27.25836,-56.83295 -86.33325,-83.40063 -144,-95.00002c-57.07202,-11.47975 -140.235,-20.57565 -176,43c-14.22714,25.29008 38.5844,54.78096 114,56.00002c81.2113,1.31271 149.39505,-33.89996 152,-75.00002c2.04379,-32.24629 -58.12869,-64.62311 -112,-62c-74.91125,3.64758 -111.62296,70.04915 -100,132.00002c10.8231,57.68762 56.29346,103.27475 104,123c39.8981,16.49667 74.42358,9.76917 76,11c6.49969,5.07483 32.77307,64.1026 64,128c31.83231,65.13605 87.48587,58.57336 71.99997,-16c-17.49286,-84.23776 -56.6217,-158.1918 -105.99997,-216c-40.87656,-47.85507 -82.21112,-81.93866 -122,-97.00002c-18.15906,-6.87378 -53.20505,-12.3112 -56,1c-2.85474,13.59598 14.01218,15.78011 39,15c48.07025,-1.50073 103.88376,-13.46654 109,-37c2.8895,-13.291 -23.09006,-31.46448 -50,-40c-22.43564,-7.11633 -61.31183,-8.8085 -65,24c-4.70914,41.89063 74.62335,93.37697 171,119.00002c96.76828,25.72717 173.31412,5.66052 168.99997,-26c-7.64362,-56.09436 -89.7403,-99.37732 -162.99997,-127.00002c-98.95847,-37.31246 -180.4834,-25.74443 -240,0c-44.39795,19.20473 -72.84286,46.31265 -77,61c-1.36171,4.811 2,9 10,12c48,18 117.73376,29.83066 189,48.00002c76.94278,19.61661 98.69476,34.39651 100,54c1.07123,16.0889 -9.69751,36.22488 -31,49c-4.61835,2.76962 -5.07422,0.95706 -1,-6c11.78659,-20.1265 39.09262,-49.96799 60,-95c28.40201,-61.17456 11.72488,-97.76541 -5,-107.00002c-13.59018,-7.50378 -44.98367,-0.24577 -95,23c-51.10608,23.75224 -93.32999,55.18298 -88,89.00002c4.11035,26.07883 74.04486,44.36246 139,32c50.63715,-9.63742 102.65396,-33.99429 110.99997,-64.00002c5.46564,-19.65012 -15.19904,-36.1496 -33,-39c-45.43207,-7.27487 -107.86139,11.4241 -148.99997,60c-36.74664,43.38994 -15.48001,121.18666 39,132.00002c63.76382,12.65601 136.49881,-19.3519 136.99997,-65c0.56958,-51.88135 -70.21957,-102.02814 -148.99997,-126.00002c-81.47046,-24.79044 -162.92979,-22.35132 -175,11c-10.0146,27.67143 54.35059,66.97527 112,78.00002c28.75351,5.49875 68.67505,6.43765 67,-2c-1.83701,-9.25339 -27.57169,-14.76242 -60,-1c-40.5452,17.20718 -61.08105,63.9772 -49,87c23.71564,45.19479 89.17621,46.7814 138,36c30.14447,-6.65659 27,-16 19,-16c-25,0 -60.02545,3.2131 -87,21c-9.44516,6.22809 -9.43427,10.60614 -8,12c25.10989,24.40271 122.55872,-7.5051 207.99997,-53c68.85388,-36.6626 91.26807,-104.60373 34,-157.00002c-20.25909,-18.53564 -81.92798,-39.46143 -150.99997,-37c-77.59738,2.76523 -151.98477,14.52206 -214,63c-25.12485,19.64034 -25.24905,42.3282 -18,43.00002c32.00317,2.96591 99.8847,-14.50528 157,-53.00002c46.96747,-31.65527 59.58676,-70.11043 49,-84c-7.59564,-9.96526 -37.69626,-6.4319 -73,20c-67.55096,50.57536 -137.60493,117.91258 -141,195.00002c-3.48955,79.23273 68.52072,161.08881 152,188c84.40732,27.21033 185.67709,11.16632 221.99997,-48c39.46503,-64.28461 21.37219,-162.50916 -63,-267.00002c-55.09094,-68.22745 -119.03036,-111.25702 -168.99997,-113c-47.04581,-1.641 -96.62469,45.40421 -113,106c-11.58496,42.86946 6.70221,79.83675 36,88.00002c44.40619,12.37296 137.85742,-4.22488 160,-27c9.35233,-9.61948 5.0979,-13.82443 7,-15c3.40262,-2.10294 17.27115,4.79568 37,-3c22.70483,-8.97165 31.80789,-29.57635 28,-41.00002c-3.80789,-11.42366 -23.99741,-15.03552 -51,-17c-27.99734,-2.03683 -47.42334,3.42824 -53,8c-5.46835,4.48297 -5,7 -5,8l0,0l-2,2" id="svg_1" stroke-width="1.5" stroke="#000" fill="none"/>
 </g>
</svg>