<svg width="800" height="600" xmlns="http://www.w3.org/2000/svg">
 <!-- Created with Method Draw - http://github.com/duopixel/Method-Draw/ -->
 <g>
  <title>background</title>
  <rect fill="#fff" id="canvas_background" height="602" width="802" y="-1" x="-1"/>
  <g display="none" overflow="visible" y="0" x="0" height="100%" width="100%" id="canvasGrid">
   <rect fill="url(#gridpattern)" stroke-width="0" y="0" x="0" height="100%" width="100%"/>
  </g>
 </g>
 <g>
  <title>Layer 1</title>
  <g stroke="null" id="svg_18">
   <path stroke="#000" d="m230.30001,259.84979c0,-1.09871 2.25333,-1.45512 12,-8.7897c15.37936,-11.5733 42.24106,-24.79104 78.66667,-38.45493c41.06267,-15.40334 79.99998,-23.07296 117.33333,-28.56653l8,0" id="svg_8" stroke-width="20.5" fill="none"/>
   <path stroke="#000" d="m335.63334,167.55795c0,1.09871 0.20369,2.24283 -1.33333,6.59227c-1.17883,3.33588 -2.52219,7.96629 -5.33333,15.38198c-2.66689,7.03514 -11.5946,14.37936 -16,26.3691c-3.66551,9.97606 -12.25951,25.05711 -17.33334,54.93561c-3.8979,22.95372 -3.94122,48.37059 -5.33333,72.51503c-1.33484,23.15125 -5.16296,45.1488 -2.66667,65.92275c1.33986,11.15016 5.33334,14.28325 9.33334,14.28325c2.66666,0 12,0 22.66666,0l8,-2.19742l5.33334,-3.29614l1.33333,-1.09872" id="svg_10" stroke-width="20.5" fill="none"/>
   <path stroke="#000" d="m480.47523,272.45563c0,-0.93852 -4.93598,-2.81557 -8.22666,-2.81557c-6.58129,0 -16.71735,-1.29376 -26.32522,0c-14.32261,1.92864 -24.25438,6.41488 -32.90658,10.32376c-10.07359,4.55105 -19.9369,7.93537 -26.32522,15.01638c-4.57955,5.07609 -3.29068,7.50818 -3.29068,12.20082c0,1.87704 -1.5527,5.85324 0,7.50818c2.7992,2.98349 14.80795,2.81557 24.67992,2.81557c14.80795,0 37.84257,-0.93853 51.00518,-0.93853c13.16261,0 21.42931,-0.4624 29.6159,0c8.34872,0.47155 17.99571,3.98298 23.03458,8.44671c7.61065,6.74197 7.45455,10.60954 4.93598,14.07786c-8.01401,11.03615 -21.74579,10.88046 -34.55189,15.01639c-18.66792,6.02908 -37.66922,13.32449 -55.94112,18.77047c-19.5646,5.83126 -42.11625,6.42478 -65.81313,11.26228c-26.33494,5.37603 -54.96968,14.13719 -78.97574,20.64753c-30.59732,8.29787 -37.84255,12.20082 -42.77853,15.9549l-1.64532,2.81557" id="svg_12" stroke-width="20.5" fill="none"/>
   <path stroke="#000" d="m486.3,200.51931c0,2.19743 0.47327,5.61585 -2.66666,13.18455c-2.32263,5.59865 -4,16.48069 -4,27.46782c0,8.78969 -1.33334,24.17167 -1.33334,41.75106c0,28.56653 0,43.94849 0,57.13304c0,9.88841 2.63681,18.06765 6.66669,24.17168c4.07993,6.17986 8,7.691 12,10.98713l2.66666,0" id="svg_13" stroke-width="20.5" fill="none"/>
   <path stroke="#000" d="m324.96669,245.56653c1.33331,0 1.40466,0.50487 4,0c2.90164,-0.56445 14.76953,-4.84216 28,-6.59227c24.27469,-3.21104 62.66666,-6.59227 100,-6.59227c40,0 73.33334,0 105.33334,0c5.33331,0 6.66663,0 16,2.19743l13.33331,2.19742l6.66669,2.19743" id="svg_14" stroke-width="20.5" fill="none"/>
   <path stroke="#000" d="m308.95531,323.59407c3.88076,-0.61463 7.76157,-1.22926 9.70193,-1.53657c11.64234,-1.84389 27.16548,-4.30242 44.62898,-7.06825c11.64234,-1.84389 37.77891,-4.54993 48.90848,-14.59978c5.26909,-4.75793 11.12064,-8.33756 10.49949,-15.37038c-0.19641,-2.224 -1.02776,-4.40642 -1.54162,-6.60958c-1.02776,-4.40642 -0.64377,-6.6494 -7.87667,-7.89085c-6.01813,-1.03294 -9.70198,1.53658 -15.52314,2.45853c-7.76153,1.22926 -11.64234,1.84389 -29.10584,4.60973c-15.5231,2.45852 -22.37732,0.92127 -27.16544,4.30241c-4.51426,3.18775 -5.19723,7.97341 -5.70607,10.04206c-2.96711,12.06208 -10.84987,11.80683 -16.32061,16.29232c-4.79815,3.93402 -4.33988,6.65247 -7.13261,12.55254c-1.97475,4.17196 -4.78555,9.61882 -4.1644,16.65164c0.58929,6.67194 2.17059,17.93286 3.19834,22.33923c0.51388,2.20321 11.24356,5.07301 20.94553,3.53643c23.28467,-3.68778 52.39051,-8.29751 93.13869,-14.75113l36.86737,-5.83898l11.64234,-1.84389" id="svg_17" fill-opacity="null" stroke-opacity="null" stroke-width="20.5" fill="none"/>
  </g>
 </g>
</svg>