<svg width="800" height="600" xmlns="http://www.w3.org/2000/svg">
 <!-- Created with Method Draw - http://github.com/duopixel/Method-Draw/ -->
 <g>
  <title>background</title>
  <rect fill="#fff" id="canvas_background" height="602" width="802" y="-1" x="-1"/>
  <g display="none" overflow="visible" y="0" x="0" height="100%" width="100%" id="canvasGrid">
   <rect fill="url(#gridpattern)" stroke-width="0" y="0" x="0" height="100%" width="100%"/>
  </g>
 </g>
 <g>
  <title>Layer 1</title>
  <ellipse stroke="#ffffff" ry="111.50903" rx="222.51803" id="svg_43" cy="288.13653" cx="420.40166" stroke-width="0.5" fill="#000"/>
  <ellipse ry="54.50442" rx="58.0047" id="svg_44" cy="284.13621" cx="417.90146" stroke-width="0.5" stroke="#ffffff" fill="#ffffff"/>
  <ellipse ry="13.00105" rx="15.50126" id="svg_45" cy="282.63608" cx="418.4015" stroke-width="0.5" stroke="#ffffff" fill="#005fbf"/>
  <path d="m84.87447,228.63171c4.00033,0 4.00033,0 5.0004,0c2.00017,0 3.00024,0 7.00057,0c4.00032,0 8.00065,0 12.00097,0c4.00033,0 9.00073,0 12.00098,0c4.00032,0 7.80627,-1.44853 12.00098,-3.00024c3.86731,-1.43062 8.19141,-0.4222 12.00096,-2.00017c5.38754,-2.23158 6.9584,-4.88092 13.00105,-7.00056c4.71854,-1.65517 8.90851,-3.49651 13.00105,-4.00032c2.97777,-0.36658 7.27769,0.77205 11.0009,-1.00009c4.51505,-2.14903 7.40375,-5.03342 12.00098,-7.00056c5.59274,-2.39313 14.70966,-4.67299 21.00169,-7.00056c3.86731,-1.4306 10.19157,-4.42252 14.00113,-6.00049c5.38754,-2.2316 11.19893,-3.63326 17.00139,-7.00056c3.11873,-1.80988 6.75766,-3.98724 13.00105,-5.0004c1.97433,-0.32039 6.97787,-3.0957 11.00089,-4.00034c4.97519,-1.11876 11.02036,-2.60606 15.00122,-3.00024c5.07462,-0.50249 10.04211,-2.84746 14.00113,-4.00032c3.03641,-0.8842 5.72021,-2.70427 10.00082,-4.00032c7.71695,-2.33649 10.83896,-2.46571 16.00128,-4.00032c4.88803,-1.45306 8.04196,-1.84738 12.00098,-3.00024c3.03641,-0.8842 4.04166,-0.84731 8.00064,-2.00017c6.07281,-1.76842 12.03906,-2.67342 22.0018,-4.00032c6.03,-0.80312 10.13382,-1.56963 14.00113,-3.00024c4.19467,-1.55171 8.00064,-3.00023 12.00098,-4.00032c4.00031,-1.00008 7.97482,-1.13922 13.00104,-2.00017c6.97012,-1.19392 14.00113,-2.00017 21.00171,-2.00017c5.0004,0 11.00089,0 14.00113,0c5.0004,0 8.00064,0 12.00098,0c6.00049,0 12.75677,1.11147 24.00195,3.00024c14.82684,2.49037 23.00186,1.00009 30.00241,1.00009c6.00052,0 10.13382,-0.43053 14.00113,1.00008c4.1947,1.55173 9.00073,3.00024 14.00116,5.00041c5.00037,2.00015 11.04541,2.79883 16.00128,4.00032c7.07568,1.71541 9.07684,1.61745 10.00079,2.00015c1.3067,0.54124 2.56152,1.89755 8.00067,4.00034c4.75635,1.83884 12.13397,2.56973 16.00128,4.00032c4.1947,1.55171 7.3916,2.76971 11.00092,5.0004c2.69019,1.66264 4.01276,4.33112 9.00073,7.00058c4.49603,2.40619 8.37268,1.38518 12.00098,4.00032c1.14734,0.82697 4.32404,2.52036 6.00049,4.00032c2.70319,2.38635 5.46405,5.72552 12.00098,10.00081c3.74304,2.44801 6.19629,3.64915 10.00079,6.00049c4.2536,2.62888 7.00055,4.00031 8.00067,5.00041c1.00006,1.00006 2.93182,3.07364 4.00031,4.00032c3.77759,3.27623 3.26392,6.866 9.00073,11.00089c1.81409,1.30754 3.61414,3.29726 6.00049,6.00049c1.47992,1.67647 3.48651,4.82416 4.00031,7.00056c0.68933,2.91998 -0.14807,4.22873 1.00006,7.00056c0.54126,1.3067 3.45911,3.69373 4.00037,5.00041c1.14819,2.77185 2.00012,6.00047 3.00024,7.00056c1.00006,1.00006 1.00006,4.00032 1.00006,5.00041c0,2.00015 1.79004,3.07867 3.00024,6.00049c0.85577,2.06601 1.82458,4.09821 3.00024,6.00049c1.05151,1.70145 0.45886,2.69366 1.00006,4.00031c0.76544,1.84793 0,3.00024 0,4.00034c0,3.00024 1.00012,4.00034 1.00012,7.00058c0,1.00006 0,4.00031 0,5.0004c0,3.00024 0,4.00031 0,7.00055c0,1.00009 0,3.00024 0,4.00034c0,1.00009 0.25653,3.79733 1.00006,5.0004c1.66266,2.69022 1.00006,4.00034 1.00006,7.00058c0,0 0.16022,3.01315 0,4.00034c-0.50659,3.12167 -2.00012,4.00031 -2.00012,5.0004c0,3.00024 -0.9726,6.64801 -2.00018,11.00089c-0.68933,2.91998 -0.67963,5.02621 -1.00006,7.00058c-0.50659,3.1217 0.15906,5.17203 -1.00012,9.0007c-1.04492,3.45111 -1.51135,4.0303 -2.00012,8.00067c-0.50385,4.09253 -0.46936,4.30481 -2.00018,8.00064c-0.5412,1.30667 -1.67981,3.02606 -2.00018,5.0004c-0.50659,3.1217 -1.49353,2.87878 -2.00012,6.00049c-0.16022,0.98718 0.30743,3.18625 -1.00012,5.0004c-1.65393,2.29471 -2.13086,5.12915 -3.00024,8.00067c-1.04492,3.45111 -3.49371,3.87885 -4.00031,7.00055c-0.32037,1.97437 -2.29309,4.29327 -3.00024,5.00043c-2.12152,2.12149 -0.42047,4.08612 -1.00006,6.00046c-1.04492,3.45114 -2.00018,6.00049 -2.00018,6.00049c-1.00006,3.00024 -2.00018,4.00034 -2.00018,5.00043c0,3.00024 0.16022,3.01315 0,4.00031c-0.50659,3.1217 -2.00012,3.00021 -3.00024,4.00034c-1.00006,1.00009 -1.00006,2.00015 -1.00006,3.00024c0,1.00009 0,2.00015 0,3.00024l-1.00006,1.00009l-1.00012,0" id="svg_49" stroke-width="27.5" stroke="#000000" fill="none"/>
  <path stroke="#000000" d="m209.95071,203.85141c0,0.80549 0,0.80549 -0.98355,1.61098c0,0 -2.41836,0.55857 -2.95066,1.61099c-0.37638,0.74417 -3.9342,1.61099 -3.9342,1.61099c-2.95066,0 -4.06502,-0.34677 -7.86842,0.80549c-2.06267,0.62489 -3.9342,0.80549 -3.9342,0.80549c-3.9342,0 -7.86841,0.80549 -13.76972,0.80549c-1.96711,0 -8.85197,0 -11.80262,0c-1.96709,0 -4.82705,0.39971 -8.85197,0.8055c-2.92855,0.29525 -4.91775,0 -6.88486,0c-0.98355,0 -1.96709,0 -5.90131,0c-2.95066,0 -3.9342,0 -5.90131,0c-1.96709,0 -4.91775,0 -7.86841,0c-3.93421,0 -5.90131,-2.41648 -7.86841,-2.41648c-2.95066,0 -4.82707,-0.3997 -8.85197,-0.80549c-2.92854,-0.29525 -3.9342,0 -4.91776,0c-1.9671,0 -3.9342,0 -5.9013,0c-1.96711,0 -4.91777,0 -5.90131,0c-2.95066,0 -6.88487,0 -7.86841,0c-3.93421,0 -6.88487,0 -7.86841,0c-2.95066,0 -3.93421,0 -5.90131,0c-0.98355,0 -1.9671,0 -1.9671,0c-1.9671,0 -3.93421,0 -3.93421,0c-3.9342,0 -5.71705,0.16658 -7.86841,1.61098c-2.74247,1.84126 -3.70823,2.43802 -3.93421,3.22197c-0.50529,1.75296 -3.04694,3.88605 -4.91776,4.83296c-1.67332,0.84694 -3.40191,0.55856 -3.93421,1.61099c-0.37639,0.74417 -1.88607,1.11712 -2.95066,3.22197c-0.37639,0.74417 0.17598,3.46256 -2.95066,4.83296c-0.86717,0.38008 -0.33194,1.05519 -1.9671,3.22197c-1.46253,1.93802 -2.44537,2.27451 -2.95066,4.02747c-0.45195,1.56788 0,2.41648 0,4.02745c0,1.61099 -0.47826,3.08001 -0.98355,4.83296c-0.45195,1.56789 0,4.02747 0,6.44394c0,2.41648 -1.12917,3.40591 0,5.63844c1.06459,2.10484 3.89011,2.85881 4.91776,5.63846c0.28501,0.77092 -1.05431,2.10318 0.98355,4.02745c1.44098,1.36066 2.95066,2.41648 3.93421,3.22195c0.98356,0.8055 2.04197,0.49725 2.95066,0.8055c1.28508,0.43595 1.93099,1.74019 5.90131,2.41648c5.85736,0.99771 6.88486,0.8055 7.86841,0.8055c1.96711,0 3.93421,0 9.83552,0c4.91776,0 9.23248,0.73911 11.80262,1.61098c2.72605,0.92474 7.86841,0 13.76973,0c5.90131,0 7.86841,0 10.81907,-0.8055c2.95065,-0.80548 4.0132,-2.71967 7.86841,-4.02745c2.72605,-0.92474 4.3147,-2.35011 6.88486,-3.22198c3.63473,-1.23299 6.20622,-1.88283 8.85197,-3.22195c3.54964,-1.79663 7.26537,-5.57208 9.83552,-6.44394c1.81737,-0.6165 3.55782,-0.8668 3.9342,-1.61098c1.59688,-3.15728 3.9342,-3.22198 5.90131,-4.83296c1.96711,-1.61099 3.23874,-2.65242 3.9342,-3.22198c0.69547,-0.56956 2.13734,-2.29784 2.95066,-3.22197c1.28594,-1.46115 2.34588,-3.52162 4.91777,-6.44393c2.43992,-2.77235 3.65304,-3.39248 5.90131,-5.63844c0.88185,-0.88095 1.5907,-0.86681 1.96709,-1.61099c0.5323,-1.05243 1.96712,-1.61098 3.93422,-3.22197c0.98355,-0.8055 2.13734,-1.49237 2.95064,-2.41648c1.28596,-1.46116 1.96711,-2.41648 2.95066,-3.22197c1.96711,-1.61099 2.95066,-2.41648 3.93422,-3.22198c1.96709,-1.61098 2.95066,-2.41648 3.9342,-3.22197c1.96711,-1.61099 2.95066,-2.41648 4.91775,-3.22197c0,0 0.98356,0 1.96711,0c1.96711,0 2.80581,-0.94493 3.9342,-1.61099c1.78416,-1.05314 2.95066,-1.61098 3.93422,-1.61098c1.96709,0 2.95064,-0.8055 3.9342,-1.61099c0.98355,-0.80549 1.96709,-1.61099 1.96709,-1.61099c0.98356,-1.61098 1.96711,-2.41648 2.95066,-3.22197l0,-0.80549l0,-0.8055l0.98356,0" id="svg_50" stroke-width="27.5" fill="none"/>
  <path d="m94.87529,227.63162c-1.00008,1.00009 -2.75733,3.98724 -9.00073,5.00041c-4.93584,0.80098 -9.00073,0 -13.00105,0c-3.00024,0 -4.00033,0 -4.00033,0c-1.00008,1.00008 -2.00016,2.00017 -3.00024,3.00024c-1.00008,1.00008 -1.00008,5.0004 -1.00008,9.00073c0,4.00032 0.09789,5.82489 2.00016,7.00056c0.85072,0.52577 2.60104,0.74429 4.00033,-1.00008c2.58015,-3.21646 2.00016,-9.00073 2.00016,-11.0009c0,-2.00015 0,-3.00024 -1.00008,-3.00024c-6.00048,0 -11.00089,0 -18.00146,0c-5.0004,0 -5.76583,1.15234 -5.0004,3.00024c0.54124,1.30667 2.05367,0.54053 4.00032,1.00008c4.35286,1.02757 9.00073,3.00024 16.00129,3.00024c5.00041,0 9.05738,-0.9176 12.00098,-3.00024c4.08202,-2.88809 6.74729,-4.3717 11.00089,-7.00056c1.90227,-1.17566 6.00048,-3.00024 9.00072,-4.00032c0,0 3.87888,-0.4935 7.00057,-1.00008c0.98716,-0.16019 2.36147,0.44301 0,2.00015c-4.49612,2.96472 -7.5548,2.45622 -15.00122,6.00049c-4.51505,2.14903 -7.17215,1.17166 -10.00081,4.00032c-1.41433,1.41434 -0.2898,4.04324 0,5.00041c1.04491,3.45113 3.00024,5.00041 5.0004,5.00041c5.0004,0 9.03516,0.13301 17.00138,-2.00017c7.03291,-1.88326 13.21647,-2.11911 19.00154,-4.00032c6.37991,-2.07465 7.08638,-3.42072 9.00073,-4.00034c3.45113,-1.04491 4.00032,-3.00023 2.00015,-3.00023c-4.00032,0 -8.00065,0 -8.00065,2.00015c0,2.00015 2.7029,-0.5414 6.0005,-2.00015c3.77095,-1.66815 6.17358,-0.8528 7.00056,-2.00017c1.30757,-1.81413 1.00008,-2.00017 3.00024,-2.00017l2.00015,0l0,-1.00008" id="svg_51" fill-opacity="null" stroke-opacity="null" stroke-width="27.5" stroke="#000000" fill="none"/>
  <path stroke="#000000" d="m664.92145,411.64653c0,0 0,0 0,0c0,0.9126 -0.35942,0.63284 -0.78333,1.82517c-0.29975,0.84312 0,0.9126 -0.78333,1.8252c0,0 -2.21254,1.91448 -3.1334,3.65034c-0.82368,1.5526 -1.56665,3.65037 -1.56665,3.65037c0,0 -0.92909,1.5446 -2.35003,2.73777c-0.89869,0.75465 -2.04535,-0.06567 -3.91673,1.82517c-1.32327,1.33703 -2.35003,2.73777 -3.13336,2.73777c-0.78333,0 -1.5667,0.9126 -3.13336,2.73777c0,0 -0.96227,-0.13512 -3.1334,0.9126c-1.02346,0.49391 -3.13336,2.73777 -3.13336,2.73777c-0.78333,0.9126 -1.89481,0.38229 -3.13336,1.82517c-1.2386,1.44293 -2.02556,1.44716 -3.1334,2.73777c-0.5539,0.64532 -0.86431,2.6523 -1.56665,3.65037c-1.79063,2.54462 -1.5667,3.65034 -1.5667,4.56294c0,0.9126 -0.38088,2.57692 -0.78333,4.56294c-0.18,0.88818 0,1.8252 0,2.73777c0,1.8252 -0.38657,2.62693 -0.78338,5.47554c-0.25099,1.80164 0,2.73777 0,3.65037c0,1.82517 -0.12549,2.74955 0,3.65034c0.3968,2.8486 1.68369,4.08321 2.35003,4.56297c2.98004,2.14561 2.35003,5.47551 3.1334,6.38811c0.78333,0.91257 2.29845,2.86946 3.91668,3.65037c2.2886,1.10439 4.70006,0.9126 4.70006,0.9126c0.78338,0 1.5667,0 3.1334,0c0.78333,0 3.13336,0 3.91668,0c2.35003,0 2.35003,0 3.1334,0c0.78333,0 2.35003,0 2.35003,0c0.78333,0 1.56665,0 2.34998,0c0.78338,0 0.91896,-0.77821 1.5667,-1.8252c1.02418,-1.65544 1.5667,-2.73777 1.5667,-3.65034c0,-0.9126 0.78333,-2.73777 0.78333,-3.65037c0,-1.82517 0.18377,-2.8767 0.78333,-4.56294c0.42396,-1.19239 0.78338,-0.9126 0.78338,-3.65037c0,-0.9126 0,-3.65034 0,-5.47554c0,-2.73777 0,-3.65034 0,-5.47554c0,-1.82517 0.89936,-4.77135 0,-7.30071c-0.42396,-1.19239 -1.5667,-1.82517 -1.5667,-3.65037c0,-0.91257 -0.78333,-0.91257 -2.35003,-0.91257c0,0 -0.78333,0 -0.78333,0c-1.5667,1.82517 -2.73091,1.66432 -3.13336,3.65034c-0.35994,1.77638 -0.65788,2.74955 -0.78338,3.65037c-0.3968,2.8486 -1.20671,3.69918 -1.56665,5.47554c-0.40244,1.98602 -1.5667,5.47554 -1.5667,6.38814c0,1.82517 0,3.65034 0,4.56294c0,0.91257 0,1.82517 0,2.73777c0,0 0.45527,1.29484 -0.78333,2.73777c-1.2386,1.44293 -1.5667,0.91257 -2.35003,0.91257c-0.78338,0 -8.92845,0.85353 -13.31685,-1.82517c-3.46935,-2.11768 -5.30592,-2.37644 -5.48339,-3.65037c-0.28058,-2.01426 2.25494,-0.80188 3.91668,-2.73777c1.6617,-1.93586 0.78338,-6.38811 0.78338,-7.30071c0,0 -0.78338,-1.82517 -0.78338,-2.73777c0,-0.91257 0,-0.91257 0.78338,-3.65034l0,0" id="svg_54" fill-opacity="null" stroke-opacity="null" stroke-width="27.5" fill="none"/>
 </g>
</svg>