<svg width="1600" height="1200" xmlns="http://www.w3.org/2000/svg" style="vector-effect: non-scaling-stroke;" stroke="null">
 <!-- Created with Method Draw - http://github.com/duopixel/Method-Draw/ -->
 <g stroke="null">
  <title stroke="null">background</title>
  <rect stroke="null" fill="#fff" id="canvas_background" height="1202" width="1602" y="-1" x="-1"/>
  <g style="vector-effect: non-scaling-stroke;" stroke="null" display="none" overflow="visible" y="0" x="0" height="100%" width="100%" id="canvasGrid">
   <rect fill="url(#gridpattern)" stroke-width="0" y="0" x="0" height="100%" width="100%"/>
  </g>
 </g>
 <g stroke="null">
  <title stroke="null">Layer 1</title>
  <path stroke="#000" id="svg_4" d="m1043.80428,375.27106" opacity="0.5" fill-opacity="null" stroke-opacity="null" stroke-dasharray="5,2,2,2" stroke-width="4" fill="none"/>
  <path stroke="#000" transform="rotate(-0.6287423372268677 848.0365600585933,668.5878906249958) " d="m1712.2635,223.32956c-25.1217,-19.39354 -39.05108,-27.81377 -65.31645,-38.78713c-36.46996,-15.23672 -75.09279,-18.29755 -113.04742,-24.93454c-42.47075,-7.42675 -95.40091,-6.50721 -160.77885,-11.08204c-150.61543,-10.53933 -281.3628,-8.3115 -411.99554,-8.3115c-120.5841,0 -243.00737,-9.87656 -361.75222,22.16404c-110.34965,29.77532 -219.34266,92.70647 -324.06975,160.68939c-83.54075,54.22993 -160.0837,111.31917 -216.04646,174.54193c-68.52888,77.41903 -79.126,113.20281 -82.90155,180.08289c-2.8098,49.77279 19.42178,104.15968 75.36504,149.60743c83.61569,67.92864 192.27665,123.29349 339.1427,149.60735c147.32586,26.3962 291.44912,34.12471 437.11728,30.47554c221.24201,-5.54244 345.29868,-29.87373 447.16597,-85.88572c91.76505,-50.45729 168.22844,-118.96846 223.58287,-177.31243c52.66751,-55.51197 92.666,-113.7971 113.04757,-166.23035c16.59253,-42.68533 15.5292,-84.17667 25.1217,-121.90234c5.16562,-20.31592 10.04865,-30.47554 10.04865,-44.32809c0,-8.3115 -15.50774,-32.83802 -17.58517,-36.01659c-3.28459,-5.02564 -2.51212,-8.3115 -2.51212,-8.3115c0,-5.54104 0,-11.08204 0,-13.85254c0,-8.31154 -3.84546,-9.15512 0,-19.39354c5.43823,-14.47938 15.07305,-19.39359 17.58517,-22.16409c7.53653,-8.31158 9.86803,-12.77494 15.07305,-19.39354c3.68048,-4.68009 10.04865,-2.7705 12.56077,-2.7705c5.0244,0 15.2388,-2.43155 20.09745,-5.541c7.83413,-5.0138 10.04865,-8.31154 15.0729,-16.62304c0,0 2.30528,-3.84231 5.0244,-11.08204c0.96137,-2.5596 3.07545,-5.27176 5.0244,-11.082c3.5937,-10.71354 2.51212,-11.08204 2.51212,-11.08204c0,-2.7705 0,-5.541 0,-8.3115c0,-2.7705 -0.73582,-6.35249 -2.51212,-8.31154c-1.77646,-1.95914 -5.2156,-4.48081 -7.53653,-5.541c-6.56473,-2.99878 -11.6753,-8.23537 -22.60958,-11.08204c-7.3349,-1.90959 -20.0973,0 -40.19475,0c-25.12155,0 -50.28633,-2.35288 -102.99877,0c-93.17904,4.15915 -217.17821,24.33273 -319.04542,80.34472c-144.20227,79.29007 -215.93143,149.32555 -223.58295,241.03406c-2.54241,30.4725 50.72914,124.88874 251.21677,268.73915c138.6912,99.51125 275.57007,166.4976 314.02102,213.32898c53.79969,65.52529 59.12967,154.92201 10.04865,193.93543c-77.60384,61.68564 -192.99518,77.5647 -278.85067,83.11526c-7.52349,0.48632 17.07781,-24.37205 37.68263,-63.72171c250.10139,-477.62599 165.79282,-862.63031 -50.2434,-1027.85787c-254.04736,-194.29901 -459.69654,-232.33411 -633.06637,-216.09952c-217.35745,20.35365 -342.56508,292.09789 -298.94805,398.95295c100.79606,246.9349 320.68925,342.98688 612.96907,451.59258c174.37482,64.79446 519.26243,69.31683 600.40814,-47.09863c57.63334,-82.68364 29.30586,-229.2154 -40.1946,-321.37878c-80.65307,-106.9528 -284.86005,-211.72798 -487.36072,-249.34556c-134.13905,-24.91835 -195.55154,31.90343 -183.38827,94.19722c17.98827,92.12626 137.22194,187.02129 188.41267,338.00178c74.72572,220.39386 65.34091,418.03578 110.53537,570.72446c25.91379,87.54928 25.1217,88.65617 7.53653,88.65617c-32.65823,0 -97.6845,-14.46255 -160.77877,24.93446c-9.2748,5.79135 1.83303,33.22368 57.77985,38.78709c120.09682,11.9427 213.16608,1.39284 236.1438,-44.328c4.87123,-9.69271 0,-27.70509 0,-30.47554l0,0l0,-2.77063l0,-5.54092" id="svg_6" fill-opacity="null" stroke-opacity="null" stroke-width="4" fill="none"/>
 </g>
</svg>