<svg width="1600" height="1200" xmlns="http://www.w3.org/2000/svg">
 <!-- Created with Method Draw - http://github.com/duopixel/Method-Draw/ -->
 <g>
  <title>background</title>
  <rect fill="#fff" id="canvas_background" height="1202" width="1602" y="-1" x="-1"/>
  <g display="none" overflow="visible" y="0" x="0" height="100%" width="100%" id="canvasGrid">
   <rect fill="url(#gridpattern)" stroke-width="0" y="0" x="0" height="100%" width="100%"/>
  </g>
 </g>
 <g>
  <title>Layer 1</title>
  <g stroke="null" id="svg_4">
   <path stroke="#000" d="m394.19975,473.54554c0,1.88296 -1.98269,1.19162 -8.72405,9.41484c-11.38655,13.88955 -19.76612,43.70859 -43.62026,69.6696c-14.99638,16.32094 -43.31246,38.33358 -95.96457,65.90368c-29.49354,15.44365 -60.645,18.37273 -68.0476,26.36147c-2.46754,2.66291 3.50661,4.13702 6.97924,3.76592c17.70705,-1.89216 34.77038,-11.62003 59.32355,-22.59555c43.40429,-19.40219 68.21389,-31.62937 90.73014,-43.30813c10.54935,-5.47173 12.21367,-9.41481 13.95848,-11.29777l1.74481,-1.88296" id="svg_1" stroke-width="3" fill="#ffffff"/>
   <path stroke="#000" d="m366.28282,513.0878c-5.23443,-20.71258 6.37407,-22.37718 10.46886,-50.84c2.424,-16.84908 4.24495,-24.51641 5.23443,-39.54221c0.87462,-13.28108 16.44198,-21.51894 26.17215,-30.12739c5.72474,-5.06477 8.72405,-22.59555 8.72405,-41.42517c0,-16.94666 -3.12141,-42.80223 1.74481,-50.83998c23.29861,-38.48321 87.33999,-52.27903 167.50179,-73.43552c83.85719,-22.13177 151.71926,-33.89247 209.37724,-35.77628c52.32035,-1.70945 91.38833,-9.6624 95.96457,5.64889c1.93119,6.46131 -0.51803,4.83375 3.48962,-1.88296c8.07081,-13.52641 7.77306,-27.75157 19.19291,-35.77628c10.64469,-7.48003 23.88902,-14.79748 36.64102,-18.82962c30.55522,-9.66146 59.23969,-13.74634 101.19895,-11.29777c55.01254,3.21028 113.51938,24.00941 164.01217,45.19109c42.18897,17.69821 83.54068,49.04254 104.68862,88.49922c23.52278,43.88748 17.4481,69.6696 17.4481,84.7333c0,13.18074 -3.22593,26.44918 -8.72405,45.19109c-4.99599,17.03026 -6.97924,41.42517 -6.97924,62.13775c0,18.82962 1.09476,26.93314 -5.23443,39.54222c-5.99288,11.93907 -17.18687,25.38546 -20.93772,32.01036c-9.67047,17.08022 -19.19291,24.47851 -19.19291,32.01036c0,0 -3.48962,1.88296 -6.97924,1.88296c-13.95848,0 -41.8994,-0.88155 -55.83393,0c-29.81513,1.88618 -46.8249,15.31385 -43.62026,32.01036c2.85322,14.8654 18.65832,25.85379 29.66178,33.89332c2.04331,1.49291 7.69873,8.57701 20.93772,22.59555c18.51455,19.60474 56.22829,52.41999 69.79241,73.43552c10.78698,16.71274 14.52473,28.99899 8.72405,45.19109c-5.07255,14.15957 -5.02463,36.94912 1.74481,62.13775c4.95648,18.4425 9.93832,39.70691 15.70329,60.25479c1.59893,5.69894 -0.73865,6.45528 -10.46886,15.0637c-5.72472,5.06477 -6.70161,9.73798 -8.72405,16.94666c-3.64606,12.99566 -8.15695,18.11415 -13.95848,28.24443c-6.48626,11.32606 -13.81588,17.15778 -20.93772,22.59555c-10.27121,7.84239 -16.66814,22.62439 -15.70329,41.42517c0.8738,17.02482 7.84025,24.2498 8.72405,30.12739c0.27945,1.8586 -5.84218,13.4007 -22.68253,22.59555c-18.22296,9.94969 -34.72251,9.41067 -61.06836,11.29777c-55.71136,3.99049 -111.56465,-1.08123 -174.48103,-7.53185c-66.21087,-6.78838 -140.51233,-25.77638 -211.12199,-45.19109c-65.65854,-18.0533 -121.69624,-37.8099 -162.26736,-80.96737c-60.78678,-64.66182 -264.27645,-193.75846 -338.4932,-295.62506c-62.6981,-86.05662 -48.54856,-197.95502 -73.28203,-241.01918c-47.45305,-82.62195 -41.12532,-141.79643 -26.17215,-167.58363c13.75971,-23.72905 41.00978,-48.04621 76.77165,-67.78664c41.27478,-22.78354 99.40896,-44.39966 150.05369,-41.42517c69.03288,4.05447 133.37394,36.21503 190.18432,80.96737c22.94164,18.07224 57.64956,54.30493 88.98533,86.61626c44.6375,46.02715 45.36507,50.83998 45.36507,56.48887c0,3.76592 -8.73187,4.87169 -41.87545,5.64889c-40.15906,0.94171 -81.07791,9.89322 -102.94381,35.77628c-13.70875,16.22733 -15.77944,63.32106 13.95848,97.91405c48.05652,55.90234 189.74936,73.13425 174.48103,64.02071c-18.38547,-10.97413 -43.97972,-21.16459 -104.68862,-3.76592c-27.19173,7.7929 -33.14771,52.83844 -8.72405,97.91403c32.25238,59.52409 89.33012,102.33274 137.84001,131.80735c10.19911,6.19698 -5.31776,4.11192 -17.4481,5.64889c-37.4083,4.73975 -57.48469,44.76432 -34.89621,71.55256c94.12897,111.62987 174.01321,118.20564 310.57618,152.51994c132.70218,33.34421 189.16858,-2.18441 300.28192,-65.22112c111.11334,-63.03672 105.0623,-213.32786 -1.91936,-149.43657c-106.98167,63.8913 -140.51633,-118.14334 -218.10129,-146.87105c-95.26511,-35.27423 -160.581,-30.42293 -195.4187,-28.24443c-75.40585,4.71528 -146.9207,29.76555 -212.86686,71.55256c-54.24971,34.37556 -107.00951,102.06847 -108.17824,144.98809c-0.99514,36.54474 22.01429,75.3605 76.77165,112.97773c70.4817,48.41951 289.06967,105.10972 385.60302,105.44588c68.40426,0.23825 116.66555,-41.09567 80.26127,-114.86069c-40.66396,-82.39643 -141.76413,-140.43836 -239.03896,-167.58363c-100.81854,-28.13415 -197.27565,-28.26729 -256.48711,0c-28.76604,13.73278 -27.74615,26.03088 -24.42734,28.24443c13.35802,8.90937 38.72566,8.87948 50.5995,-15.0637c2.46994,-4.98047 -1.82324,-16.44408 -12.21367,-15.0637c-7.14015,0.94862 -10.44361,10.37836 -1.74481,18.82962c11.07935,10.76405 18.74628,10.33803 41.87545,13.18074c26.00406,3.19606 50.7183,-3.03999 48.85469,-22.59555c-4.87212,-51.12523 -79.3289,-85.64064 -139.58482,-92.26515c-76.37633,-8.39673 -132.33985,6.36511 -158.77774,47.07405c-16.78663,25.84799 -6.61018,58.11187 12.21367,82.85034c15.73749,20.68236 49.1031,16.83082 68.0476,33.89332c8.47226,7.63057 2.60668,27.52844 8.72405,39.54221c10.1184,19.87126 50.07379,38.58395 95.96457,37.65924c46.18829,-0.93067 77.2692,-38.31306 64.55798,-73.43552c-9.91541,-27.39731 -38.1526,-34.81445 -62.81317,-33.89332c-24.96694,0.93257 -50.06536,16.90282 -71.53722,39.54221c-18.72038,19.7383 -32.82189,39.80362 -41.87545,52.72294c-6.73898,9.61651 -13.56923,28.85901 -10.46886,37.65924c7.46667,21.19379 36.32505,24.47162 94.21976,28.24443c102.75664,6.69623 211.56437,17.93273 300.10737,-3.76592c68.5893,-16.80869 106.93072,-63.84274 130.86072,-82.85034c18.3219,-14.55296 44.01237,-17.12387 61.06836,-22.59555c18.01318,-5.77875 29.66178,-13.18074 34.89621,-15.0637l1.74481,0" id="svg_2" stroke-width="3" fill="#ffffff"/>
   <path stroke="#000" d="m1153.95228,865.39696c0,0 0,0 -2.37195,-0.734c0,0 -2.5377,-4.94063 0.51439,-6.76638c3.05209,-1.82576 2.52533,-2.06286 3.73224,-4.38551c2.69875,-5.19359 4.85225,-6.3845 5.93843,-7.85814c1.5361,-2.08404 2.20619,-3.47263 3.73224,-4.38551c3.05209,-1.82576 4.57814,-2.73863 7.63023,-4.56439c6.10418,-3.65151 7.63023,-4.56439 9.15627,-5.47727c0,0 0.8459,1.64688 0.8459,1.64688c0.8459,1.64688 1.6918,3.29375 2.5377,4.94063c0,0 0.8459,1.64688 1.6918,3.29375c0.8459,1.64688 2.34019,3.06975 2.5377,4.94063c0.27932,2.64577 -1.52586,4.11254 -4.41238,6.94526c-2.58171,2.53364 -3.05209,1.82576 -6.10418,3.65151c0,0 -1.52605,0.91288 -3.05209,1.82576c0,0 -1.52605,0.91288 -3.05209,1.82576c0,0 0,0 -3.05209,1.82576c-1.52605,0.91288 -3.05209,1.82576 -3.05209,1.82576c-3.05209,1.82576 -3.05209,1.82576 -4.57814,2.73863c-1.52605,0.91288 -1.52605,0.91288 -1.52605,0.91288c-2.37195,-0.734 -3.13809,-3.41633 -5.58979,-3.11487c-1.73362,0.21315 -2.58171,2.53364 0,0c2.88652,-2.83272 3.73224,-4.38551 8.31037,-7.12414c0,0 3.05209,-1.82576 4.57814,-2.73863c1.52605,-0.91288 3.93182,-0.70423 6.10418,-3.65151c1.5361,-2.08404 1.3594,-4.741 -2.5377,-4.94063c-12.19989,-0.62493 -13.05426,5.65615 -14.58031,6.56903c-1.52605,0.91288 -1.52605,0.91288 -3.05209,1.82576c0,0 -2.20619,3.47263 -2.88633,6.03239c0,0 -0.68014,2.55975 0.16576,4.20663c0.8459,1.64688 2.2846,-0.64006 7.79598,-0.35776c7.39429,0.37877 8.64188,1.28911 10.16793,0.37624c1.52605,-0.91288 1.12001,-1.99899 2.20619,-3.47263c1.5361,-2.08404 0.68014,-2.55975 -0.16576,-4.20663c-0.8459,-1.64688 0.68014,-2.55975 2.20619,-3.47263c1.52605,-0.91288 0.68014,-2.55975 -2.37195,-0.734c-1.52605,0.91288 -1.52605,0.91288 -4.57814,2.73863c-1.52605,0.91288 -3.89799,0.17888 -3.05209,1.82576c0,0 3.05209,-1.82576 4.57814,-2.73863c1.52605,-0.91288 3.05209,-1.82576 6.10418,-3.65151c1.52605,-0.91288 1.52605,-0.91288 2.20619,-3.47263c0.68014,-2.55975 1.36029,-5.11951 1.36029,-5.11951c-0.8459,-1.64688 -0.8459,-1.64688 -2.5377,-4.94063c0,0 -3.05209,1.82576 -7.63023,4.56439c-1.52605,0.91288 -3.05209,1.82576 -3.73224,4.38551c-0.68014,2.55975 -2.20619,3.47263 -2.88633,6.03239c0,0 0.8459,1.64688 1.6918,3.29375c1.6918,3.29375 4.20609,4.98948 7.96174,3.84887c1.67961,-0.51008 4.57814,-2.73863 6.10418,-3.65151c0,0 -0.8459,-1.64688 -1.6918,-3.29375c0,0 -0.8459,-1.64688 -0.8459,-1.64688c-0.8459,-1.64688 -2.5377,-4.94063 -5.58979,-3.11487c-1.52605,0.91288 1.52605,-0.91288 4.57814,-2.73863c3.05209,-1.82576 6.1188,-0.87677 7.79598,-0.35776c1.67718,0.519 3.38004,-2.07955 2.20619,-3.47263c-2.62486,-3.11502 -4.50459,-3.10407 -6.43569,-4.76175c-1.36552,-1.17218 -2.37195,-0.734 -2.37195,-0.734c-1.52605,0.91288 -2.57117,0.01577 -3.05209,1.82576c-0.48093,1.80998 4.6804,6.13954 5.0754,9.88125c0.27932,2.64577 0.16576,4.20663 0.16576,4.20663c-3.05209,1.82576 -3.71762,7.16026 -2.04043,7.67926c3.3544,1.03806 4.57814,-2.73863 4.57814,-2.73863c3.05209,-1.82576 3.94324,-1.97942 2.88633,-6.03239c-0.47267,-1.81252 -0.68014,2.55975 0.16576,4.20663l-0.68014,2.55975l-1.52605,0.91288" id="svg_3" stroke-width="3" fill="#ffffff"/>
  </g>
 </g>
</svg>