{
    "asset" : {
        "generator" : "Khronos glTF Blender I/O v1.4.40",
        "version" : "2.0"
    },
    "scene" : 0,
    "scenes" : [
        {
            "name" : "Scene",
            "nodes" : [
                0,
                1,
                2,
                3
            ]
        }
    ],
    "nodes" : [
        {
            "mesh" : 0,
            "name" : "Sphere.015",
            "rotation" : [
                0.04922867193818092,
                -0.02707155980169773,
                -0.1347646266222,
                0.9892836809158325
            ],
            "scale" : [
                -3.3070411682128906,
                -3.3070411682128906,
                -3.3070411682128906
            ],
            "translation" : [
                -2.2867398262023926,
                0.9767860770225525,
                -0.4086708724498749
            ]
        },
        {
            "mesh" : 1,
            "name" : "Sphere.012",
            "scale" : [
                -0.4193033277988434,
                -0.4193033277988434,
                -0.4193033277988434
            ],
            "translation" : [
                -2.2934648990631104,
                6.916187763214111,
                -2.042354106903076
            ]
        },
        {
            "name" : "Plane",
            "rotation" : [
                0,
                0,
                0.07735119760036469,
                0.9970039129257202
            ],
            "translation" : [
                -0.17448954284191132,
                2.106612205505371,
                -0.2822253406047821
            ]
        },
        {
            "name" : "Camera",
            "rotation" : [
                -0.2906482517719269,
                -0.44371333718299866,
                -0.8458589911460876,
                0.056256961077451706
            ],
            "scale" : [
                -3.1644039154052734,
                -3.1644043922424316,
                -3.1644039154052734
            ],
            "translation" : [
                -5.547159194946289,
                15.740781784057617,
                -14.463815689086914
            ]
        }
    ],
    "materials" : [
        {
            "alphaMode" : "BLEND",
            "doubleSided" : true,
            "name" : "transparendy",
            "pbrMetallicRoughness" : {
                "baseColorFactor" : [
                    0.800000011920929,
                    0.800000011920929,
                    0.800000011920929,
                    0.31272727251052856
                ],
                "metallicFactor" : 0,
                "roughnessFactor" : 0.5226700305938721
            }
        },
        {
            "alphaCutoff" : 0.4816933274269104,
            "alphaMode" : "MASK",
            "name" : "Material.001",
            "pbrMetallicRoughness" : {}
        },
        {
            "doubleSided" : true,
            "name" : "mat-testo",
            "pbrMetallicRoughness" : {
                "baseColorFactor" : [
                    0.39954331517219543,
                    0.5457162261009216,
                    0.3052124083042145,
                    1
                ],
                "metallicFactor" : 0.27204030752182007,
                "roughnessFactor" : 0.5
            }
        },
        {
            "name" : "Material",
            "pbrMetallicRoughness" : {}
        }
    ],
    "meshes" : [
        {
            "name" : "Sphere.016",
            "primitives" : [
                {
                    "attributes" : {
                        "POSITION" : 0,
                        "NORMAL" : 1,
                        "TEXCOORD_0" : 2
                    },
                    "indices" : 3,
                    "material" : 0
                }
            ]
        },
        {
            "name" : "Sphere.013",
            "primitives" : [
                {
                    "attributes" : {
                        "POSITION" : 4,
                        "NORMAL" : 5,
                        "TEXCOORD_0" : 6
                    },
                    "indices" : 7,
                    "material" : 1
                },
                {
                    "attributes" : {
                        "POSITION" : 8,
                        "NORMAL" : 9,
                        "TEXCOORD_0" : 10
                    },
                    "indices" : 11,
                    "material" : 2
                },
                {
                    "attributes" : {
                        "POSITION" : 12,
                        "NORMAL" : 13,
                        "TEXCOORD_0" : 14
                    },
                    "indices" : 15,
                    "material" : 3
                }
            ]
        }
    ],
    "accessors" : [
        {
            "bufferView" : 0,
            "componentType" : 5126,
            "count" : 559,
            "max" : [
                1.192582130432129,
                0.16508102416992188,
                1.4547419548034668
            ],
            "min" : [
                -0.8027795553207397,
                -3.5205342769622803,
                -0.9352196455001831
            ],
            "type" : "VEC3"
        },
        {
            "bufferView" : 1,
            "componentType" : 5126,
            "count" : 559,
            "type" : "VEC3"
        },
        {
            "bufferView" : 2,
            "componentType" : 5126,
            "count" : 559,
            "type" : "VEC2"
        },
        {
            "bufferView" : 3,
            "componentType" : 5123,
            "count" : 2880,
            "type" : "SCALAR"
        },
        {
            "bufferView" : 4,
            "componentType" : 5126,
            "count" : 2795,
            "max" : [
                4.33773136138916,
                13.503576278686523,
                4.046336650848389
            ],
            "min" : [
                -12.980554580688477,
                -2.8699750900268555,
                -10.465429306030273
            ],
            "type" : "VEC3"
        },
        {
            "bufferView" : 5,
            "componentType" : 5126,
            "count" : 2795,
            "type" : "VEC3"
        },
        {
            "bufferView" : 6,
            "componentType" : 5126,
            "count" : 2795,
            "type" : "VEC2"
        },
        {
            "bufferView" : 7,
            "componentType" : 5123,
            "count" : 14400,
            "type" : "SCALAR"
        },
        {
            "bufferView" : 8,
            "componentType" : 5126,
            "count" : 3354,
            "max" : [
                -0.579866886138916,
                12.845918655395508,
                5.831317901611328
            ],
            "min" : [
                -12.269645690917969,
                -1.3519172668457031,
                -6.151771068572998
            ],
            "type" : "VEC3"
        },
        {
            "bufferView" : 9,
            "componentType" : 5126,
            "count" : 3354,
            "type" : "VEC3"
        },
        {
            "bufferView" : 10,
            "componentType" : 5126,
            "count" : 3354,
            "type" : "VEC2"
        },
        {
            "bufferView" : 11,
            "componentType" : 5123,
            "count" : 17280,
            "type" : "SCALAR"
        },
        {
            "bufferView" : 12,
            "componentType" : 5126,
            "count" : 2236,
            "max" : [
                1.591376781463623,
                10.525089263916016,
                4.573390960693359
            ],
            "min" : [
                -11.515909194946289,
                -6.85728645324707,
                -8.05887222290039
            ],
            "type" : "VEC3"
        },
        {
            "bufferView" : 13,
            "componentType" : 5126,
            "count" : 2236,
            "type" : "VEC3"
        },
        {
            "bufferView" : 14,
            "componentType" : 5126,
            "count" : 2236,
            "type" : "VEC2"
        },
        {
            "bufferView" : 15,
            "componentType" : 5123,
            "count" : 11520,
            "type" : "SCALAR"
        }
    ],
    "bufferViews" : [
        {
            "buffer" : 0,
            "byteLength" : 6708,
            "byteOffset" : 0
        },
        {
            "buffer" : 0,
            "byteLength" : 6708,
            "byteOffset" : 6708
        },
        {
            "buffer" : 0,
            "byteLength" : 4472,
            "byteOffset" : 13416
        },
        {
            "buffer" : 0,
            "byteLength" : 5760,
            "byteOffset" : 17888
        },
        {
            "buffer" : 0,
            "byteLength" : 33540,
            "byteOffset" : 23648
        },
        {
            "buffer" : 0,
            "byteLength" : 33540,
            "byteOffset" : 57188
        },
        {
            "buffer" : 0,
            "byteLength" : 22360,
            "byteOffset" : 90728
        },
        {
            "buffer" : 0,
            "byteLength" : 28800,
            "byteOffset" : 113088
        },
        {
            "buffer" : 0,
            "byteLength" : 40248,
            "byteOffset" : 141888
        },
        {
            "buffer" : 0,
            "byteLength" : 40248,
            "byteOffset" : 182136
        },
        {
            "buffer" : 0,
            "byteLength" : 26832,
            "byteOffset" : 222384
        },
        {
            "buffer" : 0,
            "byteLength" : 34560,
            "byteOffset" : 249216
        },
        {
            "buffer" : 0,
            "byteLength" : 26832,
            "byteOffset" : 283776
        },
        {
            "buffer" : 0,
            "byteLength" : 26832,
            "byteOffset" : 310608
        },
        {
            "buffer" : 0,
            "byteLength" : 17888,
            "byteOffset" : 337440
        },
        {
            "buffer" : 0,
            "byteLength" : 23040,
            "byteOffset" : 355328
        }
    ],
    "buffers" : [
        {
            "byteLength" : 378368,
            "uri" : "data:application/octet-stream;base64,"
        }
    ]
}
